<?xml version="1.0" encoding="UTF-8" standalone="no"?>
<svg
   width="16"
   height="16"
   fill="currentColor"
   class="bi bi-pin-fill"
   viewBox="0 0 16 16"
   version="1.1"
   id="svg4"
   sodipodi:docname="pin-fill-yellow.svg"
   inkscape:version="1.2.2 (732a01da63, 2022-12-09)"
   xmlns:inkscape="http://www.inkscape.org/namespaces/inkscape"
   xmlns:sodipodi="http://sodipodi.sourceforge.net/DTD/sodipodi-0.dtd"
   xmlns="http://www.w3.org/2000/svg"
   xmlns:svg="http://www.w3.org/2000/svg">
  <defs
     id="defs8" />
  <sodipodi:namedview
     id="namedview6"
     pagecolor="#ffffff"
     bordercolor="#000000"
     borderopacity="0.25"
     inkscape:showpageshadow="2"
     inkscape:pageopacity="0.0"
     inkscape:pagecheckerboard="0"
     inkscape:deskcolor="#d1d1d1"
     showgrid="false"
     inkscape:zoom="14.75"
     inkscape:cx="8"
     inkscape:cy="8"
     inkscape:window-width="1920"
     inkscape:window-height="1129"
     inkscape:window-x="939"
     inkscape:window-y="-8"
     inkscape:window-maximized="1"
     inkscape:current-layer="svg4" />
  <path
     d="M4.146.146A.5.5 0 0 1 4.5 0h7a.5.5 0 0 1 .5.5c0 .68-.342 1.174-.646 1.479-.126.125-.25.224-.354.298v4.431l.078.048c.203.127.476.314.751.555C12.36 7.775 13 8.527 13 9.5a.5.5 0 0 1-.5.5h-4v4.5c0 .276-.224 1.5-.5 1.5s-.5-1.224-.5-1.5V10h-4a.5.5 0 0 1-.5-.5c0-.973.64-1.725 1.17-2.189A5.921 5.921 0 0 1 5 6.708V2.277a2.77 2.77 0 0 1-.354-.298C4.342 1.674 4 1.179 4 .5a.5.5 0 0 1 .146-.354z"
     id="path2"
     style="fill:#ffff00" />
</svg>
