<?xml version="1.0" encoding="utf-8"?>
<!-- Generator: Adobe Illustrator 16.0.3, SVG Export Plug-In . SVG Version: 6.00 Build 0)  -->
<!DOCTYPE svg PUBLIC "-//W3C//DTD SVG 1.1//EN" "http://www.w3.org/Graphics/SVG/1.1/DTD/svg11.dtd">
<svg version="1.1" id="レイヤー_1" xmlns="http://www.w3.org/2000/svg" xmlns:xlink="http://www.w3.org/1999/xlink" x="0px"
	 y="0px" width="16px" height="16px" viewBox="0 0 16 16" enable-background="new 0 0 16 16" xml:space="preserve">
<path stroke="#DE6CA5" stroke-miterlimit="10" d="M8,0c0.553,0,1,0.448,1,1v1.402c0,0.511,0.677,0.693,0.934,0.25l0.699-1.214
	C10.909,0.959,11.521,0.795,12,1.071c0.479,0.276,0.643,0.888,0.366,1.367l-0.701,1.214c-0.256,0.443,0.239,0.939,0.683,0.683
	l1.215-0.701c0.479-0.273,1.09-0.105,1.363,0.375c0.27,0.476,0.108,1.08-0.363,1.357l-1.215,0.701C12.904,6.323,13.086,7,13.598,7
	H15c0.553,0,1,0.447,1,1c0.001,0.552-0.446,1-0.998,1C15.001,9,15,9,15,9h-1.402c-0.512,0-0.693,0.678-0.25,0.934l1.215,0.7
	c0.479,0.272,0.647,0.884,0.375,1.364c-0.273,0.479-0.884,0.647-1.364,0.375c-0.003-0.002-0.007-0.005-0.011-0.007l-1.215-0.7
	c-0.443-0.257-0.938,0.24-0.683,0.682l0.701,1.215c0.279,0.477,0.119,1.088-0.357,1.367c-0.476,0.279-1.089,0.12-1.368-0.356
	c-0.002-0.003-0.004-0.007-0.007-0.011l-0.7-1.215C9.677,12.904,9,13.086,9,13.598V15c0,0.553-0.447,1-1,1c-0.552,0-1-0.447-1-1
	v-1.402c0-0.512-0.677-0.693-0.933-0.25l-0.701,1.215c-0.279,0.477-0.892,0.636-1.369,0.356c-0.472-0.276-0.634-0.882-0.364-1.356
	l0.7-1.215c0.257-0.443-0.24-0.938-0.682-0.683l-1.214,0.701c-0.477,0.279-1.089,0.119-1.368-0.356
	c-0.28-0.477-0.12-1.09,0.357-1.369c0.003-0.002,0.007-0.004,0.011-0.007l1.214-0.7C3.095,9.678,2.913,9,2.402,9H1
	C0.448,9,0,8.553,0,8c0-0.552,0.448-1,1-1h1.402c0.511,0,0.693-0.677,0.25-0.933L1.438,5.366C0.958,5.093,0.79,4.482,1.063,4.002
	s0.883-0.648,1.363-0.375C2.43,3.629,2.434,3.632,2.438,3.634l1.214,0.701c0.443,0.256,0.939-0.24,0.683-0.683L3.634,2.438
	c-0.273-0.48-0.105-1.091,0.375-1.364c0.476-0.27,1.08-0.108,1.357,0.364l0.701,1.214C6.323,3.095,7,2.913,7,2.402V1
	C7,0.448,7.448,0,8,0z M10,5c0-0.552-0.447-1-1-1C8.448,4,8,4.448,8,5s0.448,1,1,1C9.553,6,10,5.552,10,5z M6,7c0-0.552-0.448-1-1-1
	S4,6.448,4,7s0.448,1,1,1S6,7.552,6,7z M7,11c0.552,0,1-0.447,1-1S7.552,9,7,9s-1,0.447-1,1S6.448,11,7,11z M12,8
	c0-0.552-0.447-1-1-1s-1,0.448-1,1c0,0.553,0.447,1,1,1S12,8.553,12,8z"/>
</svg>
