<?xml version="1.0" encoding="UTF-8" standalone="no"?>
<svg
   width="16"
   height="16"
   fill="currentColor"
   class="bi bi-crosshair"
   viewBox="0 0 16 16"
   version="1.1"
   id="svg4"
   sodipodi:docname="crosshair-green.svg"
   inkscape:version="1.2.2 (732a01da63, 2022-12-09)"
   xmlns:inkscape="http://www.inkscape.org/namespaces/inkscape"
   xmlns:sodipodi="http://sodipodi.sourceforge.net/DTD/sodipodi-0.dtd"
   xmlns="http://www.w3.org/2000/svg"
   xmlns:svg="http://www.w3.org/2000/svg">
  <defs
     id="defs8" />
  <sodipodi:namedview
     id="namedview6"
     pagecolor="#ffffff"
     bordercolor="#000000"
     borderopacity="0.25"
     inkscape:showpageshadow="2"
     inkscape:pageopacity="0.0"
     inkscape:pagecheckerboard="0"
     inkscape:deskcolor="#d1d1d1"
     showgrid="false"
     inkscape:zoom="14.75"
     inkscape:cx="8"
     inkscape:cy="8"
     inkscape:window-width="1920"
     inkscape:window-height="1129"
     inkscape:window-x="939"
     inkscape:window-y="-8"
     inkscape:window-maximized="1"
     inkscape:current-layer="svg4" />
  <path
     d="M8.5.5a.5.5 0 0 0-1 0v.518A7 7 0 0 0 1.018 7.5H.5a.5.5 0 0 0 0 1h.518A7 7 0 0 0 7.5 14.982v.518a.5.5 0 0 0 1 0v-.518A7 7 0 0 0 14.982 8.5h.518a.5.5 0 0 0 0-1h-.518A7 7 0 0 0 8.5 1.018zm-6.48 7A6 6 0 0 1 7.5 2.02v.48a.5.5 0 0 0 1 0v-.48a6 6 0 0 1 5.48 5.48h-.48a.5.5 0 0 0 0 1h.48a6 6 0 0 1-5.48 5.48v-.48a.5.5 0 0 0-1 0v.48A6 6 0 0 1 2.02 8.5h.48a.5.5 0 0 0 0-1zM8 10a2 2 0 1 0 0-4 2 2 0 0 0 0 4"
     id="path2"
     style="fill:#00ff00" />
</svg>
