<?xml version="1.0" encoding="UTF-8" standalone="no"?>
<svg
   width="16"
   height="16"
   fill="currentColor"
   class="bi bi-signpost"
   viewBox="0 0 16 16"
   version="1.1"
   id="svg4"
   sodipodi:docname="signpost-r.svg"
   inkscape:version="1.2.1 (9c6d41e410, 2022-07-14)"
   xmlns:inkscape="http://www.inkscape.org/namespaces/inkscape"
   xmlns:sodipodi="http://sodipodi.sourceforge.net/DTD/sodipodi-0.dtd"
   xmlns="http://www.w3.org/2000/svg"
   xmlns:svg="http://www.w3.org/2000/svg">
  <defs
     id="defs8" />
  <sodipodi:namedview
     id="namedview6"
     pagecolor="#ffffff"
     bordercolor="#000000"
     borderopacity="0.25"
     inkscape:showpageshadow="2"
     inkscape:pageopacity="0.0"
     inkscape:pagecheckerboard="0"
     inkscape:deskcolor="#d1d1d1"
     showgrid="false"
     inkscape:zoom="56.375"
     inkscape:cx="8.0088692"
     inkscape:cy="8.5498891"
     inkscape:window-width="1844"
     inkscape:window-height="1057"
     inkscape:window-x="1268"
     inkscape:window-y="-8"
     inkscape:window-maximized="1"
     inkscape:current-layer="svg4" />
  <path
     d="M 9.3488125,1.414 V 4 h 5.0000005 a 1,1 0 0 1 1,1 v 4 a 1,1 0 0 1 -1,1 H 9.3488125 v 6 h -2 v -6 h -3.532 a 1,1 0 0 1 -0.768,-0.36 l -1.933,-2.32 a 0.5,0.5 0 0 1 0,-0.64 l 1.933,-2.32 a 1,1 0 0 1 0.768,-0.36 h 3.532 V 1.414 a 1,1 0 0 1 2,0 z m -5.532,3.586 -1.666,2 1.666,2 H 14.348813 V 5 Z"
     id="path2" />
</svg>
