<?xml version="1.0" encoding="UTF-8" standalone="no"?>
<svg
   width="16"
   height="16"
   fill="currentColor"
   class="bi bi-trash"
   viewBox="0 0 16 16"
   version="1.1"
   id="svg6"
   sodipodi:docname="trash-w.svg"
   inkscape:version="1.2.2 (732a01da63, 2022-12-09)"
   xmlns:inkscape="http://www.inkscape.org/namespaces/inkscape"
   xmlns:sodipodi="http://sodipodi.sourceforge.net/DTD/sodipodi-0.dtd"
   xmlns="http://www.w3.org/2000/svg"
   xmlns:svg="http://www.w3.org/2000/svg">
  <defs
     id="defs10" />
  <sodipodi:namedview
     id="namedview8"
     pagecolor="#ffffff"
     bordercolor="#000000"
     borderopacity="0.25"
     inkscape:showpageshadow="2"
     inkscape:pageopacity="0.0"
     inkscape:pagecheckerboard="0"
     inkscape:deskcolor="#d1d1d1"
     showgrid="false"
     inkscape:zoom="14.75"
     inkscape:cx="8.0338983"
     inkscape:cy="8"
     inkscape:window-width="1920"
     inkscape:window-height="1129"
     inkscape:window-x="939"
     inkscape:window-y="-8"
     inkscape:window-maximized="1"
     inkscape:current-layer="svg6" />
  <path
     d="M5.5 5.5A.5.5 0 0 1 6 6v6a.5.5 0 0 1-1 0V6a.5.5 0 0 1 .5-.5m2.5 0a.5.5 0 0 1 .5.5v6a.5.5 0 0 1-1 0V6a.5.5 0 0 1 .5-.5m3 .5a.5.5 0 0 0-1 0v6a.5.5 0 0 0 1 0z"
     id="path2" />
  <path
     d="M14.5 3a1 1 0 0 1-1 1H13v9a2 2 0 0 1-2 2H5a2 2 0 0 1-2-2V4h-.5a1 1 0 0 1-1-1V2a1 1 0 0 1 1-1H6a1 1 0 0 1 1-1h2a1 1 0 0 1 1 1h3.5a1 1 0 0 1 1 1zM4.118 4 4 4.059V13a1 1 0 0 0 1 1h6a1 1 0 0 0 1-1V4.059L11.882 4zM2.5 3h11V2h-11z"
     id="path4" />
  <path
     style="fill:#ffffff;stroke-width:0.0677966"
     d="M 4.3237003,14.837011 C 3.9151291,14.692339 3.4053082,14.208098 3.2125969,13.781656 L 3.0508475,13.423729 3.0321313,8.702701 3.0134152,3.9816727 2.5885691,3.9546205 C 1.7800244,3.9031363 1.5253625,3.5542429 1.5255291,2.4982285 1.5256466,1.7533979 1.6212023,1.4694617 1.9539674,1.2251583 2.134038,1.0929574 2.2587736,1.0827633 4.0868449,1.0508475 l 1.9416219,-0.033898 0.045906,-0.22476832 c 0.051325,-0.25130123 0.2735765,-0.51952951 0.5493787,-0.66302929 0.2615221,-0.13606985 2.4909742,-0.13606985 2.7524962,0 0.2758021,0.14349978 0.4980529,0.41172806 0.549379,0.66302929 l 0.045907,0.22476832 1.9416213,0.033898 c 1.828071,0.031916 1.952807,0.04211 2.132878,0.1743108 0.332765,0.2443034 0.42832,0.5282396 0.428438,1.2730702 1.36e-4,1.0560144 -0.254495,1.4049078 -1.06304,1.456392 l -0.424846,0.027052 -0.01872,4.7210283 -0.01871,4.7210282 -0.16175,0.357927 c -0.198951,0.440249 -0.706135,0.91212 -1.138857,1.059562 -0.458039,0.15607 -6.8826262,0.15238 -7.3248456,-0.0042 z m 7.2425447,-0.990905 c 0.490309,-0.327547 0.469942,-0.09102 0.450857,-5.2359365 L 12,4 H 8 4 L 3.9828984,8.6101695 C 3.9638132,13.755091 3.9434459,13.518559 4.4337548,13.846106 L 4.6641197,14 H 8 11.33588 Z M 13.525424,2.5084746 V 2 H 8 2.4745763 V 2.5084746 3.0169492 H 8 13.525424 Z"
     id="path385" />
  <path
     style="fill:#ffffff;stroke-width:0.0677966"
     d="M 5.1857773,12.304421 C 5.0526374,12.171281 5.0499235,12.095071 5.0671332,8.9727396 L 5.0847458,5.7773145 5.2652846,5.6425381 c 0.2565712,-0.1915362 0.5111397,-0.1141884 0.6401145,0.1944917 0.083951,0.2009242 0.096736,0.7230699 0.080278,3.2786728 -0.01854,2.8788354 -0.02641,3.0472374 -0.1487273,3.1823324 -0.1640836,0.181224 -0.4733024,0.184257 -0.6511727,0.0064 z"
     id="path387" />
  <path
     style="fill:#ffffff;stroke-width:0.0677966"
     d="M 7.6715246,12.316696 C 7.570462,12.205023 7.559322,11.875678 7.559322,8.9995043 c 0,-2.7535913 0.014056,-3.2072648 0.1020963,-3.2953052 0.181875,-0.181875 0.376248,-0.2024358 0.567068,-0.059985 l 0.1782934,0.1330999 0.01762,3.2069582 c 0.015999,2.9119798 0.00724,3.2184298 -0.095253,3.3316828 -0.1464846,0.161863 -0.5114354,0.162274 -0.6576215,7.39e-4 z"
     id="path389" />
  <path
     style="fill:#ffffff;stroke-width:0.0677966"
     d="M 10.16305,12.298035 C 10.040733,12.16294 10.032862,11.994538 10.014323,9.1157026 9.9978647,6.5600997 10.010649,6.037954 10.094601,5.8370298 10.223576,5.5283497 10.478144,5.4510019 10.734715,5.6425381 l 0.180539,0.1347764 0.01761,3.1954251 c 0.01721,3.1223314 0.0145,3.1985414 -0.118644,3.3316814 -0.177871,0.177871 -0.487089,0.174838 -0.651173,-0.0064 z"
     id="path391" />
</svg>
